<?xml version="1.0" encoding="UTF-8"?>
<mxfile host="app.diagrams.net" modified="2025-08-15T15:00:00.000Z" agent="5.0" etag="network-plant" version="21.6.5" type="device">
  <diagram name="Planta-de-Rede" id="planta-rede">
    <mxGraphModel dx="1422" dy="794" grid="1" gridSize="10" guides="1" tooltips="1" connect="1" arrows="1" fold="1" page="1" pageScale="1" pageWidth="1169" pageHeight="827" math="0" shadow="0">
      <root>
        <mxCell id="0" />
        <mxCell id="1" parent="0" />
        
        <!-- Title -->
        <mxCell id="title" value="🌐 PLANTA DE REDE - AMBIENTES ISOLADOS" style="rounded=0;whiteSpace=wrap;html=1;fillColor=#1ba1e2;strokeColor=#006EAF;fontSize=18;fontStyle=1;fontColor=#ffffff;" vertex="1" parent="1">
          <mxGeometry x="40" y="20" width="1080" height="50" as="geometry" />
        </mxCell>
        
        <!-- Azure Region -->
        <mxCell id="azure-region" value="Azure Region: Brazil South" style="rounded=1;whiteSpace=wrap;html=1;fillColor=#e1d5e7;strokeColor=#9673a6;fontSize=14;fontStyle=1;verticalAlign=top;spacingTop=10;" vertex="1" parent="1">
          <mxGeometry x="60" y="90" width="1040" height="700" as="geometry" />
        </mxCell>
        
        <!-- Internet Gateway -->
        <mxCell id="internet" value="🌍 INTERNET" style="ellipse;whiteSpace=wrap;html=1;fillColor=#f8cecc;strokeColor=#b85450;fontSize=16;fontStyle=1;" vertex="1" parent="1">
          <mxGeometry x="520" y="110" width="120" height="80" as="geometry" />
        </mxCell>
        
        <!-- Azure Load Balancer -->
        <mxCell id="load-balancer" value="⚖️ Azure Load Balancer&#xa;Public IP: Dynamic&#xa;SKU: Basic" style="rounded=1;whiteSpace=wrap;html=1;fillColor=#fff2cc;strokeColor=#d6b656;fontSize=12;fontStyle=1;" vertex="1" parent="1">
          <mxGeometry x="480" y="220" width="200" height="80" as="geometry" />
        </mxCell>
        
        <!-- DEV Network Segment -->
        <mxCell id="dev-segment" value="🟢 DEV NETWORK SEGMENT" style="rounded=1;whiteSpace=wrap;html=1;fillColor=#d5e8d4;strokeColor=#82b366;fontSize=14;fontStyle=1;verticalAlign=top;spacingTop=15;" vertex="1" parent="1">
          <mxGeometry x="80" y="330" width="480" height="430" as="geometry" />
        </mxCell>
        
        <!-- DEV VNet -->
        <mxCell id="dev-vnet-detail" value="🔷 VNet: dev-vnet-isolated&#xa;📍 Address Space: 10.100.0.0/16&#xa;📊 Size: 65,534 IPs&#xa;🏷️ DNS: Azure Default&#xa;🔒 DDoS: Basic Protection" style="rounded=1;whiteSpace=wrap;html=1;fillColor=#dae8fc;strokeColor=#6c8ebf;fontSize=11;fontStyle=1;verticalAlign=top;spacingTop=10;" vertex="1" parent="1">
          <mxGeometry x="100" y="370" width="220" height="120" as="geometry" />
        </mxCell>
        
        <!-- DEV Subnets -->
        <mxCell id="dev-subnet-detail" value="🔸 Subnet: dev-subnet-isolated&#xa;📍 CIDR: 10.100.1.0/24&#xa;📊 Available: 251 IPs&#xa;🚪 Gateway: 10.100.1.1&#xa;🛡️ NSG: dev-nsg-isolated" style="rounded=1;whiteSpace=wrap;html=1;fillColor=#f8cecc;strokeColor=#b85450;fontSize=10;" vertex="1" parent="1">
          <mxGeometry x="110" y="510" width="200" height="100" as="geometry" />
        </mxCell>
        
        <!-- DEV Application Gateway -->
        <mxCell id="dev-appgw" value="🚪 Application Gateway&#xa;Tier: Basic&#xa;Capacity: 1 instance&#xa;WAF: Disabled (cost opt.)" style="rounded=1;whiteSpace=wrap;html=1;fillColor=#ffcc99;strokeColor=#ff6600;fontSize=10;" vertex="1" parent="1">
          <mxGeometry x="340" y="370" width="180" height="80" as="geometry" />
        </mxCell>
        
        <!-- DEV Private Endpoints -->
        <mxCell id="dev-endpoints" value="🔗 Private Endpoints&#xa;├── SQL: 10.100.1.10&#xa;├── Storage: 10.100.1.11&#xa;└── KeyVault: 10.100.1.12" style="rounded=1;whiteSpace=wrap;html=1;fillColor=#e1d5e7;strokeColor=#9673a6;fontSize=10;" vertex="1" parent="1">
          <mxGeometry x="340" y="470" width="180" height="80" as="geometry" />
        </mxCell>
        
        <!-- DEV Route Table -->
        <mxCell id="dev-routes" value="🗺️ Route Table: dev-routes&#xa;├── 0.0.0.0/0 → Internet&#xa;├── 10.100.0.0/16 → VNetLocal&#xa;└── 168.63.129.16/32 → Internet" style="rounded=1;whiteSpace=wrap;html=1;fillColor=#f5f5f5;strokeColor=#666666;fontSize=9;" vertex="1" parent="1">
          <mxGeometry x="340" y="570" width="180" height="80" as="geometry" />
        </mxCell>
        
        <!-- DEV Network Details -->
        <mxCell id="dev-network-details" value="�� DEV NETWORK DETAILS&#xa;┌─────────────────────────────┐&#xa;│ DHCP Options: Azure Default │&#xa;│ DNS Servers: 168.63.129.16  │&#xa;│ NTP Servers: time.windows.com│&#xa;│ Domain: None                 │&#xa;│ VLAN: N/A (Azure Virtual)   │&#xa;│ MTU: 1500 bytes             │&#xa;│ Bandwidth: Unlimited         │&#xa;└─────────────────────────────┘" style="rounded=1;whiteSpace=wrap;html=1;fillColor=#d5e8d4;strokeColor=#82b366;fontSize=9;fontFamily=Courier New;" vertex="1" parent="1">
          <mxGeometry x="100" y="630" width="220" height="120" as="geometry" />
        </mxCell>
        
        <!-- HOMOLOG Network Segment -->
        <mxCell id="hml-segment" value="🟡 HOMOLOG NETWORK SEGMENT" style="rounded=1;whiteSpace=wrap;html=1;fillColor=#ffe6cc;strokeColor=#d79b00;fontSize=14;fontStyle=1;verticalAlign=top;spacingTop=15;" vertex="1" parent="1">
          <mxGeometry x="600" y="330" width="480" height="430" as="geometry" />
        </mxCell>
        
        <!-- HOMOLOG VNet -->
        <mxCell id="hml-vnet-detail" value="🔷 VNet: hml-vnet-isolated&#xa;📍 Address Space: 10.200.0.0/16&#xa;📊 Size: 65,534 IPs&#xa;🏷️ DNS: Azure Default&#xa;🔒 DDoS: Basic Protection" style="rounded=1;whiteSpace=wrap;html=1;fillColor=#dae8fc;strokeColor=#6c8ebf;fontSize=11;fontStyle=1;verticalAlign=top;spacingTop=10;" vertex="1" parent="1">
          <mxGeometry x="620" y="370" width="220" height="120" as="geometry" />
        </mxCell>
        
        <!-- HOMOLOG Subnets -->
        <mxCell id="hml-subnet-detail" value="🔸 Subnet: hml-subnet-isolated&#xa;📍 CIDR: 10.200.1.0/24&#xa;📊 Available: 251 IPs&#xa;🚪 Gateway: 10.200.1.1&#xa;🛡️ NSG: hml-nsg-isolated" style="rounded=1;whiteSpace=wrap;html=1;fillColor=#f8cecc;strokeColor=#b85450;fontSize=10;" vertex="1" parent="1">
          <mxGeometry x="630" y="510" width="200" height="100" as="geometry" />
        </mxCell>
        
        <!-- HOMOLOG Application Gateway -->
        <mxCell id="hml-appgw" value="🚪 Application Gateway&#xa;Tier: Standard&#xa;Capacity: 2 instances&#xa;WAF: Detection Mode" style="rounded=1;whiteSpace=wrap;html=1;fillColor=#ffcc99;strokeColor=#ff6600;fontSize=10;" vertex="1" parent="1">
          <mxGeometry x="860" y="370" width="180" height="80" as="geometry" />
        </mxCell>
        
        <!-- HOMOLOG Private Endpoints -->
        <mxCell id="hml-endpoints" value="🔗 Private Endpoints&#xa;├── SQL: 10.200.1.10&#xa;├── Storage: 10.200.1.11&#xa;├── KeyVault: 10.200.1.12&#xa;└── Redis: 10.200.1.13" style="rounded=1;whiteSpace=wrap;html=1;fillColor=#e1d5e7;strokeColor=#9673a6;fontSize=10;" vertex="1" parent="1">
          <mxGeometry x="860" y="470" width="180" height="90" as="geometry" />
        </mxCell>
        
        <!-- HOMOLOG Route Table -->
        <mxCell id="hml-routes" value="🗺️ Route Table: hml-routes&#xa;├── 0.0.0.0/0 → Internet&#xa;├── 10.200.0.0/16 → VNetLocal&#xa;└── 168.63.129.16/32 → Internet" style="rounded=1;whiteSpace=wrap;html=1;fillColor=#f5f5f5;strokeColor=#666666;fontSize=9;" vertex="1" parent="1">
          <mxGeometry x="860" y="580" width="180" height="80" as="geometry" />
        </mxCell>
        
        <!-- HOMOLOG Network Details -->
        <mxCell id="hml-network-details" value="📊 HML NETWORK DETAILS&#xa;┌─────────────────────────────┐&#xa;│ DHCP Options: Azure Default │&#xa;│ DNS Servers: 168.63.129.16  │&#xa;│ NTP Servers: time.windows.com│&#xa;│ Domain: None                 │&#xa;│ VLAN: N/A (Azure Virtual)   │&#xa;│ MTU: 1500 bytes             │&#xa;│ Bandwidth: Unlimited         │&#xa;└─────────────────────────────┘" style="rounded=1;whiteSpace=wrap;html=1;fillColor=#ffe6cc;strokeColor=#d79b00;fontSize=9;fontFamily=Courier New;" vertex="1" parent="1">
          <mxGeometry x="620" y="630" width="220" height="120" as="geometry" />
        </mxCell>
        
        <!-- Network Isolation Barrier -->
        <mxCell id="network-barrier" value="🚫 NETWORK ISOLATION&#xa;No Peering&#xa;No VPN Gateway&#xa;No ExpressRoute&#xa;Complete Segregation" style="rounded=0;whiteSpace=wrap;html=1;fillColor=#ff6666;strokeColor=#ff0000;fontSize=11;fontStyle=1;rotation=90;" vertex="1" parent="1">
          <mxGeometry x="570" y="480" width="50" height="200" as="geometry" />
        </mxCell>
        
        <!-- Connection Lines -->
        <mxCell id="conn-internet-lb" value="" style="endArrow=classic;html=1;strokeColor=#000000;strokeWidth=3;" edge="1" parent="1" source="internet" target="load-balancer">
          <mxGeometry width="50" height="50" relative="1" as="geometry">
            <mxPoint x="400" y="300" as="sourcePoint" />
            <mxPoint x="450" y="250" as="targetPoint" />
          </mxGeometry>
        </mxCell>
        
        <mxCell id="conn-lb-dev" value="" style="endArrow=classic;html=1;strokeColor=#82b366;strokeWidth=2;" edge="1" parent="1" source="load-balancer" target="dev-appgw">
          <mxGeometry width="50" height="50" relative="1" as="geometry">
            <mxPoint x="400" y="300" as="sourcePoint" />
            <mxPoint x="450" y="250" as="targetPoint" />
          </mxGeometry>
        </mxCell>
        
        <mxCell id="conn-lb-hml" value="" style="endArrow=classic;html=1;strokeColor=#d79b00;strokeWidth=2;" edge="1" parent="1" source="load-balancer" target="hml-appgw">
          <mxGeometry width="50" height="50" relative="1" as="geometry">
            <mxPoint x="400" y="300" as="sourcePoint" />
            <mxPoint x="450" y="250" as="targetPoint" />
          </mxGeometry>
        </mxCell>
        
      </root>
    </mxGraphModel>
  </diagram>
</mxfile>
